<?xml version="1.0" encoding="UTF-8"?>
<svg xmlns="http://www.w3.org/2000/svg" width="190" height="60" viewBox="0 0 190 60" fill="none">
  <path d="M188.821 1.52607C188.821 1.06137 188.417 0.767471 187.791 0.765252H187.455V0.75638H186.869L186.864 3.45693H187.449L187.452 2.32015H187.717L188.653 3.46026H189.005L188.046 2.30573C188.5 2.22144 188.82 1.91313 188.821 1.52607ZM187.453 2.0573L187.455 1.0281H187.791C188.064 1.0281 188.212 1.2 188.212 1.52496C188.212 1.64917 188.226 2.05952 187.836 2.05841H187.453V2.0573Z" fill="#EFEBE7"></path>
  <path d="M187.855 2.79502e-06C186.55 -0.00221532 185.697 0.847323 185.694 2.13937C185.691 3.42366 186.533 4.26211 187.846 4.26433C189.142 4.26655 189.996 3.43254 189.999 2.14714C190.001 0.855086 189.143 0.00111185 187.854 -0.00110626L187.855 2.79502e-06ZM187.847 4.00148C186.682 3.99926 185.958 3.27838 185.96 2.13937C185.962 0.993718 186.699 0.260631 187.856 0.262849C189.005 0.265067 189.737 0.993718 189.735 2.14714C189.732 3.28503 189.005 4.00259 187.848 4.00148H187.847Z" fill="#EFEBE7"></path>
  <path d="M18.1432 51.7808H15.3261V59.9534L18.2261 59.9423C20.6535 59.9301 22.1393 58.3198 22.1393 55.9031C22.1393 53.4865 20.6065 51.7819 18.1432 51.7819V51.7808ZM16.8578 59.5564V52.1778H18.0369C19.8171 52.1778 20.5013 54.1043 20.5013 55.8787C20.5013 57.6532 19.8295 59.5564 18.0615 59.5564H16.8578Z" fill="#EFEBE7"></path>
  <path d="M29.8226 59.9534H34.4423V59.5564H31.3543V56.0773H33.8534V55.6802H31.3543V52.1778H34.4423V51.7797H29.8226V59.9534Z" fill="#EFEBE7"></path>
  <path d="M45.404 57.3616L43.2228 51.7808H41.5489L44.7198 59.9989L48.1259 51.7808H47.678L45.404 57.3616Z" fill="#EFEBE7"></path>
  <path d="M55.752 59.9534H60.3718V59.5564H57.2837V56.0773H59.7828V55.6802H57.2837V52.1778H60.3718V51.7797H55.752V59.9534Z" fill="#EFEBE7"></path>
  <path d="M69.5654 51.7808H68.0326V59.9534H72.4531V59.5553H69.5654V51.7808Z" fill="#EFEBE7"></path>
  <path d="M83.1662 51.7342C80.62 51.7342 78.7927 53.4621 78.7927 55.8898C78.7927 58.3176 80.62 59.9989 83.1662 59.9989C85.7123 59.9989 87.5273 58.3176 87.5273 55.8898C87.5273 53.4621 85.7123 51.7342 83.1662 51.7342ZM83.1661 59.603C81.3747 59.603 80.4431 57.5956 80.4431 55.8677C80.4431 54.1397 81.3747 52.1312 83.1661 52.1312C84.9576 52.1312 85.878 54.1275 85.878 55.8677C85.878 57.6078 84.9576 59.603 83.1661 59.603Z" fill="#EFEBE7"></path>
  <path d="M95.2105 51.7808V59.9534H96.7433V56.6263H97.7813C99.5134 56.6263 100.716 55.5871 100.716 54.1974C100.716 52.8078 99.4552 51.7808 97.5461 51.7808H95.2105ZM97.6973 56.2292H96.7433V52.1656H97.545C98.8058 52.1656 99.1361 53.298 99.1361 54.1863C99.1361 55.1434 98.8763 56.2292 97.6973 56.2292Z" fill="#EFEBE7"></path>
  <path d="M113.35 58.1312L109.367 51.7331L108.058 59.9534H108.471L109.307 54.559L112.796 59.9989L115.731 54.6055L116.628 59.9534H118.23L116.852 51.7331L113.35 58.1312Z" fill="#EFEBE7"></path>
  <path d="M126.091 59.9534H130.712V59.5564H127.623V56.0773H130.122V55.6802H127.623V52.1778H130.712V51.7797H126.091V59.9534Z" fill="#EFEBE7"></path>
  <path d="M144.501 57.3848L138.372 51.7342V59.9534H138.773V54.3372L144.902 60V51.7797H144.501V57.3848Z" fill="#EFEBE7"></path>
  <path d="M152.173 52.1778H154.448V59.9534H155.981V52.1778H158.255V51.7808H152.173V52.1778Z" fill="#EFEBE7"></path>
  <path d="M168.214 55.2133C167.272 54.7808 166.517 54.3848 166.517 53.4621C166.517 52.8322 166.954 52.1312 167.743 52.1312C168.532 52.1312 169.181 52.4118 169.547 52.9608L169.758 52.505C169.37 52.027 168.603 51.7342 167.778 51.7342C166.339 51.7342 164.937 52.2832 164.937 53.847C164.937 55.2366 165.975 55.6802 166.977 56.2292C167.908 56.7427 168.662 57.2562 168.662 58.1091C168.662 58.8799 168.097 59.6041 167.189 59.6041C166.281 59.6041 165.35 59.1372 164.902 58.4129L164.679 58.8677C165.421 59.6739 166.163 60 167.212 60C168.863 60 170.288 59.2059 170.288 57.6765C170.288 56.1471 169.227 55.6802 168.213 55.2133H168.214Z" fill="#EFEBE7"></path>
  <path d="M79.1085 1.03808L79.1051 1.04496H79.1119L79.1085 1.03808Z" fill="#EFEBE7"></path>
  <path d="M135.415 3.69205H129.365L130.369 5.49982L130.372 5.50315H130.38V43.6259H136.428V3.69982H135.419L135.415 3.69205Z" fill="#EFEBE7"></path>
  <path d="M120.29 3.69205H114.242L115.246 5.49982L115.248 5.50425H115.255V22.9897C115.255 29.3789 111.767 35.2536 106.153 38.3224L109.075 43.5682C116.619 39.4458 121.303 31.5604 121.303 22.9897V3.69982H120.295L120.29 3.69205Z" fill="#EFEBE7"></path>
  <path d="M167.693 3.69982H145.504V43.6259H167.693C178.823 43.6259 187.847 34.688 187.847 23.6628C187.847 12.6377 178.823 3.69982 167.693 3.69982ZM167.693 37.6348H151.553V9.69095H167.693C175.47 9.69095 181.798 15.9593 181.798 23.6628C181.798 31.3664 175.47 37.6348 167.693 37.6348Z" fill="#EFEBE7"></path>
  <path d="M45.3737 43.6259V3.69871H40.3285L22.6869 35.4599L5.04526 3.69871H0V43.6259H6.04961V16.3974L21.1742 43.6259H27.2227L25.7111 40.9043L39.3241 16.3974V43.6259H45.3737Z" fill="#EFEBE7"></path>
  <path d="M93.896 32.4588C95.4355 31.5604 96.8743 30.4935 98.1765 29.2702L95.1209 23.7715C93.9206 25.1268 92.5188 26.2802 90.977 27.203L77.9261 3.70093H71.8776L72.8819 5.50869L51.7156 43.627H57.7641L61.2351 37.3763L58.0619 35.7283H61.9214V35.7227H81.8293C84.3161 35.7227 86.7424 35.3323 89.04 34.6081L94.0483 43.627H100.097L93.896 32.4599V32.4588ZM81.8293 29.7305H65.4809L75.9073 10.9553L86.0493 29.2203C84.6856 29.5519 83.2714 29.7316 81.8293 29.7316V29.7305Z" fill="#EFEBE7"></path>
</svg>
